<svg width="33" height="30" viewBox="0 0 33 30" fill="none" xmlns="http://www.w3.org/2000/svg">
<path d="M26.8125 11.7812C26.8125 14.3811 25.8521 16.7826 24.2344 18.7311L32.3941 25.9074C33.1998 26.6154 33.1998 27.7652 32.3941 28.4732C31.5885 29.1812 30.2801 29.1812 29.4744 28.4732L21.3146 21.2969C19.0975 22.7242 16.3646 23.5625 13.4062 23.5625C6.00059 23.5625 0 18.2893 0 11.7812C0 5.27324 6.00059 0 13.4062 0C20.8119 0 26.8125 5.27324 26.8125 11.7812ZM13.4062 19.9375C14.6251 19.9375 15.832 19.7265 16.958 19.3166C18.0841 18.9068 19.1072 18.306 19.9691 17.5486C20.8309 16.7912 21.5146 15.8921 21.981 14.9025C22.4474 13.9129 22.6875 12.8523 22.6875 11.7812C22.6875 10.7102 22.4474 9.64955 21.981 8.65999C21.5146 7.67043 20.8309 6.77129 19.9691 6.01391C19.1072 5.25653 18.0841 4.65575 16.958 4.24586C15.832 3.83597 14.6251 3.625 13.4062 3.625C12.1874 3.625 10.9805 3.83597 9.85447 4.24586C8.72842 4.65575 7.70526 5.25653 6.84341 6.01391C5.98157 6.77129 5.29792 7.67043 4.83149 8.65999C4.36507 9.64955 4.125 10.7102 4.125 11.7812C4.125 12.8523 4.36507 13.9129 4.83149 14.9025C5.29792 15.8921 5.98157 16.7912 6.84341 17.5486C7.70526 18.306 8.72842 18.9068 9.85447 19.3166C10.9805 19.7265 12.1874 19.9375 13.4062 19.9375Z" fill="black" fill-opacity="0.53"/>
</svg>
